<svg id="Layer_1" data-name="Layer 1" xmlns="http://www.w3.org/2000/svg" xmlns:xlink="http://www.w3.org/1999/xlink" viewBox="0 0 250.63 48.72"><defs><style>.cls-1,.cls-2,.cls-3,.cls-4,.cls-5,.cls-6,.cls-7,.cls-8,.cls-9{fill-rule:evenodd;}.cls-1{fill:url(#linear-gradient);}.cls-2{fill:url(#linear-gradient-2);}.cls-3{fill:url(#linear-gradient-3);}.cls-4{fill:url(#linear-gradient-4);}.cls-5{fill:url(#linear-gradient-5);}.cls-6{fill:url(#linear-gradient-6);}.cls-7{fill:url(#linear-gradient-7);}.cls-8{fill:url(#linear-gradient-8);}.cls-9{fill:url(#linear-gradient-9);}.cls-10{fill:url(#linear-gradient-10);}.cls-11{fill:url(#linear-gradient-11);}.cls-12{fill:url(#linear-gradient-12);}</style><linearGradient id="linear-gradient" y1="25.42" x2="24.84" y2="25.42" gradientUnits="userSpaceOnUse"><stop offset="0" stop-color="#6cb9ea"/><stop offset="1" stop-color="#79c4ec"/></linearGradient><linearGradient id="linear-gradient-2" x1="26.7" y1="30.35" x2="51.54" y2="30.35" xlink:href="#linear-gradient"/><linearGradient id="linear-gradient-3" x1="53.56" y1="25.42" x2="78.41" y2="25.42" xlink:href="#linear-gradient"/><linearGradient id="linear-gradient-4" x1="80.37" y1="25.18" x2="103.21" y2="25.18" xlink:href="#linear-gradient"/><linearGradient id="linear-gradient-5" x1="105.21" y1="25.42" x2="126.38" y2="25.42" xlink:href="#linear-gradient"/><linearGradient id="linear-gradient-6" x1="128.38" y1="25.42" x2="153.22" y2="25.42" xlink:href="#linear-gradient"/><linearGradient id="linear-gradient-7" x1="155.81" y1="25.18" x2="172.06" y2="25.18" xlink:href="#linear-gradient"/><linearGradient id="linear-gradient-8" x1="173.32" y1="21.19" x2="191.32" y2="21.19" xlink:href="#linear-gradient"/><linearGradient id="linear-gradient-9" x1="101.79" y1="5.93" x2="110.59" y2="5.93" xlink:href="#linear-gradient"/><linearGradient id="linear-gradient-10" x1="196.78" y1="14.02" x2="250.63" y2="14.02" xlink:href="#linear-gradient"/><linearGradient id="linear-gradient-11" x1="207.19" y1="34.92" x2="214.88" y2="34.92" xlink:href="#linear-gradient"/><linearGradient id="linear-gradient-12" x1="224.71" y1="34.92" x2="232.4" y2="34.92" xlink:href="#linear-gradient"/></defs><title>opencart</title><path class="cls-1" d="M17.46,25.4a7.28,7.28,0,0,0-1.22-4.28,4.37,4.37,0,0,0-3.81-2,4.37,4.37,0,0,0-3.82,2A7.22,7.22,0,0,0,7.38,25.4a7.45,7.45,0,0,0,1.23,4.33,4.38,4.38,0,0,0,3.82,2,4.37,4.37,0,0,0,3.81-2A7.51,7.51,0,0,0,17.46,25.4Zm7.38,0a13.84,13.84,0,0,1-3.35,9.45,11.48,11.48,0,0,1-9.07,4,11.47,11.47,0,0,1-9.07-4A13.84,13.84,0,0,1,0,25.4,13.81,13.81,0,0,1,3.36,16a11.6,11.6,0,0,1,9.07-4,11.53,11.53,0,0,1,9.07,4A13.81,13.81,0,0,1,24.84,25.4Z"/><path class="cls-2" d="M44.16,25.4a7.28,7.28,0,0,0-1.23-4.28,4.68,4.68,0,0,0-7.63,0,7.28,7.28,0,0,0-1.22,4.28,7.51,7.51,0,0,0,1.22,4.33,4.68,4.68,0,0,0,7.63,0A7.52,7.52,0,0,0,44.16,25.4Zm7.38,0a14.55,14.55,0,0,1-3,9.17,10,10,0,0,1-8.35,4.3,9.22,9.22,0,0,1-6.08-2.08c0,.32,0,1.09.11,2.31s.11,2.24.11,3q0,6.59-3.92,6.58a3.45,3.45,0,0,1-2.64-1.13,3.93,3.93,0,0,1-1-2.75V16.3a3.83,3.83,0,0,1,1.06-2.7,3.46,3.46,0,0,1,2.62-1.13,3.6,3.6,0,0,1,3.44,2.35A7.74,7.74,0,0,1,40.16,12a10.07,10.07,0,0,1,8.35,4.25A14.64,14.64,0,0,1,51.54,25.4Z"/><path class="cls-3" d="M71,22.75a4.33,4.33,0,0,0-1.56-3.08,4.68,4.68,0,0,0-3.21-1.39A4.73,4.73,0,0,0,63,19.67a4.13,4.13,0,0,0-1.51,3.08Zm7.38,1.86a3.15,3.15,0,0,1-.87,2.56,4.32,4.32,0,0,1-2.72.71H61.49a3.57,3.57,0,0,0,2,3.26,8,8,0,0,0,3.92.89,10.65,10.65,0,0,0,4.33-1.18A11,11,0,0,1,75,29.66a2.88,2.88,0,0,1,2.18.95A3.2,3.2,0,0,1,78,32.86q0,3-4.53,4.72a20.23,20.23,0,0,1-7,1.28A12.16,12.16,0,0,1,57.13,35a13.59,13.59,0,0,1-3.57-9.64,13.34,13.34,0,0,1,3.71-9.48A12.07,12.07,0,0,1,66.46,12,11.08,11.08,0,0,1,75,15.71,12.75,12.75,0,0,1,78.41,24.61Z"/><path class="cls-4" d="M103.21,34.5a3.94,3.94,0,0,1-1,2.75,3.45,3.45,0,0,1-2.64,1.13q-3.87,0-3.87-6.14c0-.79.05-2,.16-3.73s.17-2.94.17-3.73q0-6.51-4.2-6.51t-4.2,6.51c0,.79,0,2,.12,3.73s.13,2.94.13,3.73q0,6.13-3.81,6.14a3.41,3.41,0,0,1-2.63-1.13,3.9,3.9,0,0,1-1-2.75V16.29a3.79,3.79,0,0,1,1-2.71,3.45,3.45,0,0,1,2.64-1.11,3.71,3.71,0,0,1,3.68,2.35Q89.52,12,94.06,12a9.58,9.58,0,0,1,6.66,2.22,8.55,8.55,0,0,1,2.5,6.52Z"/><path class="cls-5" d="M126.38,33.72q0,2.5-3.26,4a13.13,13.13,0,0,1-5.48,1.18,11.47,11.47,0,0,1-9.07-4,13.85,13.85,0,0,1-3.36-9.45,13.89,13.89,0,0,1,3.43-9.52,11.39,11.39,0,0,1,9-3.9,14.61,14.61,0,0,1,5.53.95q3.22,1.27,3.21,4a3.72,3.72,0,0,1-.85,2.41,2.69,2.69,0,0,1-2.17,1,8.65,8.65,0,0,1-2.6-.6,8.45,8.45,0,0,0-2.69-.6A4.92,4.92,0,0,0,114,21a6.74,6.74,0,0,0-1.37,4.37,7.2,7.2,0,0,0,1.23,4.27,4.35,4.35,0,0,0,3.82,2,9.81,9.81,0,0,0,3-.65,10.08,10.08,0,0,1,2.74-.64,2.75,2.75,0,0,1,2.13,1A3.43,3.43,0,0,1,126.38,33.72Z"/><path class="cls-6" d="M145.84,25.4a7.28,7.28,0,0,0-1.22-4.28,4.46,4.46,0,0,0-3.81-2,4.38,4.38,0,0,0-3.82,2,7.23,7.23,0,0,0-1.23,4.28,7.71,7.71,0,0,0,1.18,4.33,4.49,4.49,0,0,0,3.86,2,4.38,4.38,0,0,0,3.81-2A7.51,7.51,0,0,0,145.84,25.4Zm7.38,9.1a3.93,3.93,0,0,1-1,2.75,3.46,3.46,0,0,1-2.65,1.13A3.54,3.54,0,0,1,146.09,36a7.74,7.74,0,0,1-6.33,2.83,10.12,10.12,0,0,1-8.41-4.3,14.77,14.77,0,0,1-3-9.17,14.81,14.81,0,0,1,3-9.18A10.21,10.21,0,0,1,139.76,12a7.74,7.74,0,0,1,6.33,2.84,3.54,3.54,0,0,1,3.44-2.35,3.46,3.46,0,0,1,2.62,1.13,3.82,3.82,0,0,1,1.06,2.69Z"/><path class="cls-7" d="M172.06,15.8a3.25,3.25,0,0,1-2.3,3.26q-2.13.72-4.25,1.47c-1.55.88-2.31,2.53-2.31,4.91V34.5a4,4,0,0,1-1,2.75,3.67,3.67,0,0,1-5.3,0,3.9,3.9,0,0,1-1-2.75V16.29a3.82,3.82,0,0,1,1-2.71,3.48,3.48,0,0,1,2.65-1.11,3.71,3.71,0,0,1,3.68,2.35c1.58-1.89,3.28-2.84,5.11-2.84A3.63,3.63,0,0,1,171,13.11,3.76,3.76,0,0,1,172.06,15.8Z"/><path class="cls-8" d="M191.32,16.14a2.92,2.92,0,0,1-1.92,3.12,14.63,14.63,0,0,1-3.95.33V34.5a4,4,0,0,1-1,2.75,3.65,3.65,0,0,1-5.28,0,3.88,3.88,0,0,1-1.06-2.75V19.59a7.27,7.27,0,0,1-3.32-.57,3,3,0,0,1-1.42-2.88,2.89,2.89,0,0,1,1.47-2.83,7.09,7.09,0,0,1,3.28-.56V9.57q0-5.58,3.69-5.57c2.46,0,3.69,1.85,3.69,5.57v3.16a14.63,14.63,0,0,1,3.95.33A2.88,2.88,0,0,1,191.32,16.14Z"/><path class="cls-9" d="M106.2,3.79h-1V5.64h1a2.37,2.37,0,0,0,1.19-.21.82.82,0,0,0,.33-.75.71.71,0,0,0-.37-.67A2.27,2.27,0,0,0,106.2,3.79Zm.13-.49a2.86,2.86,0,0,1,1.58.34,1.17,1.17,0,0,1,.5,1.06,1.27,1.27,0,0,1-.33.89,1.35,1.35,0,0,1-.88.42l1.13,2.39h-.78l-1.09-2.29h-1.28V8.42h-.7V3.3Zm3.82,2.63a3.8,3.8,0,0,0-.3-1.51A3.77,3.77,0,0,0,109,3.14a3.86,3.86,0,0,0-1.3-.87,4.06,4.06,0,0,0-1.53-.3,3.77,3.77,0,0,0-1.51.3,4,4,0,0,0-1.27.84,4.17,4.17,0,0,0-.87,1.31,3.9,3.9,0,0,0,.87,4.28,3.94,3.94,0,0,0,1.29.87,3.83,3.83,0,0,0,1.5.31,4,4,0,0,0,1.52-.31A4.15,4.15,0,0,0,109,8.71a3.81,3.81,0,0,0,1.15-2.77Zm-4-4.42a4.45,4.45,0,0,1,1.7.34,4.36,4.36,0,0,1,1.43,1,4.27,4.27,0,0,1,.94,1.42,4.39,4.39,0,0,1,.33,1.7A4.28,4.28,0,0,1,109.32,9a4.68,4.68,0,0,1-1.46,1,4.21,4.21,0,0,1-1.68.34,4.13,4.13,0,0,1-1.67-.34,4.57,4.57,0,0,1-2.39-2.39,4.35,4.35,0,0,1-.33-1.68,4.27,4.27,0,0,1,.34-1.69,4.39,4.39,0,0,1,1-1.45,4.18,4.18,0,0,1,1.4-1A4.48,4.48,0,0,1,106.18,1.52Z"/><path class="cls-10" d="M196.78,0c6.91,7.27,13.36,8.36,38.81,8.36S249.84,14,234.12,28c5-8.66,22.1-16.33-6-15.9C201.27,12.55,199.68,4.36,196.78,0Z"/><path class="cls-11" d="M214.88,34.93A3.85,3.85,0,1,1,211,31.08,3.84,3.84,0,0,1,214.88,34.93Z"/><path class="cls-12" d="M232.4,34.93a3.85,3.85,0,1,1-3.84-3.85A3.84,3.84,0,0,1,232.4,34.93Z"/></svg>
